<svg id="svg" version="1.1" xmlns="http://www.w3.org/2000/svg" xmlns:xlink="http://www.w3.org/1999/xlink" width="400" height="437.10843373493975" viewBox="0, 0, 400,437.10843373493975"><g id="svgg"><path id="path0" d="M193.800 87.450 C 181.109 88.771,167.234 91.923,157.600 95.675 C 146.487 100.002,135.181 105.813,133.178 108.226 C 132.759 108.731,141.576 127.600,142.231 127.600 C 142.283 127.600,145.441 125.894,149.248 123.808 C 203.279 94.210,267.626 111.002,299.426 163.000 C 301.716 166.744,305.106 173.614,306.729 177.800 C 309.194 184.157,309.945 186.221,310.220 187.400 C 310.374 188.060,310.906 190.040,311.403 191.800 C 311.900 193.560,312.436 195.990,312.594 197.200 C 312.751 198.410,313.122 200.480,313.417 201.800 C 314.712 207.590,314.800 215.008,314.810 318.780 C 314.819 423.216,314.840 424.763,316.294 426.769 C 318.474 429.776,334.060 432.364,336.141 430.065 C 336.893 429.235,337.137 224.937,336.399 214.200 C 335.705 204.107,334.845 196.945,333.792 192.500 C 333.466 191.125,332.914 188.785,332.565 187.300 C 331.727 183.735,329.739 177.212,328.551 174.132 C 328.028 172.774,327.600 171.544,327.600 171.399 C 327.600 171.253,327.039 169.844,326.353 168.267 C 307.319 124.520,270.561 96.021,223.566 88.576 C 217.197 87.567,199.214 86.887,193.800 87.450 M192.412 129.041 C 175.580 131.077,152.133 141.618,146.562 149.654 L 145.400 151.330 145.266 166.297 L 145.132 181.264 146.066 180.771 C 147.105 180.223,147.409 179.905,151.400 175.184 C 170.587 152.489,201.575 144.844,229.953 155.803 C 294.098 180.576,283.905 274.553,215.684 287.367 C 209.200 288.584,209.200 288.584,209.200 299.472 C 209.200 310.830,209.249 310.886,218.000 309.432 C 246.804 304.644,270.384 287.571,284.561 261.241 C 285.792 258.953,286.800 257.000,286.800 256.901 C 286.800 256.802,287.048 256.154,287.352 255.460 C 289.491 250.579,291.620 244.382,292.389 240.800 C 292.649 239.590,293.105 237.700,293.401 236.600 C 296.182 226.287,295.328 205.489,291.630 193.467 C 278.320 150.205,237.354 123.605,192.412 129.041 M293.346 284.700 C 292.920 285.085,291.407 286.837,289.985 288.593 C 274.213 308.071,253.073 321.303,228.200 327.266 C 227.320 327.477,223.652 328.084,220.050 328.616 C 208.741 330.284,208.479 330.625,208.994 342.991 C 209.347 351.462,209.495 351.797,212.851 351.712 C 215.954 351.634,226.642 349.753,232.000 348.344 C 244.749 344.989,252.827 341.802,266.576 334.703 C 269.449 333.219,271.999 332.004,272.243 332.003 C 272.559 332.001,272.752 337.792,272.915 352.100 C 273.219 378.869,274.166 384.628,280.225 396.551 C 283.552 403.098,292.543 414.400,294.425 414.400 C 294.657 414.400,294.800 389.526,294.800 349.200 C 294.800 313.340,294.648 284.000,294.461 284.000 C 294.275 284.000,293.773 284.315,293.346 284.700 " stroke="none" fill="#1c2c5c" fill-rule="evenodd"></path><path id="path1" d="M91.800 2.772 C 57.791 8.306,54.550 54.706,87.477 64.655 C 107.475 70.697,127.984 55.379,127.984 34.400 C 127.984 15.098,110.417 -0.258,91.800 2.772 M99.133 25.417 C 107.737 27.972,108.037 39.354,99.600 43.169 C 93.778 45.801,86.800 40.912,86.800 34.200 C 86.800 27.752,92.744 23.520,99.133 25.417 M65.725 87.514 C 64.438 88.333,64.400 90.172,64.407 151.126 C 64.414 224.591,64.647 232.922,67.041 245.400 C 69.976 260.700,75.220 274.159,83.716 288.200 C 103.836 321.452,139.198 344.903,177.800 350.596 C 191.703 352.646,191.954 352.501,191.975 342.400 C 191.998 330.901,191.727 330.583,180.200 328.592 C 158.567 324.856,140.887 316.640,124.567 302.740 C 120.788 299.522,113.555 292.169,111.693 289.652 C 111.102 288.853,109.873 287.300,108.961 286.200 C 105.880 282.483,97.200 268.562,97.200 267.339 C 97.200 267.260,96.743 266.252,96.184 265.098 C 93.807 260.189,91.145 252.633,89.563 246.298 C 86.391 233.596,86.418 234.380,86.689 162.345 C 86.957 90.939,87.041 93.021,83.789 90.463 C 81.679 88.803,67.372 86.467,65.725 87.514 M106.175 104.521 C 105.384 106.583,106.268 224.502,107.120 230.600 C 108.325 239.225,111.839 252.443,113.935 256.235 C 114.167 256.656,115.281 258.872,116.410 261.159 C 129.263 287.210,158.603 307.759,185.958 309.869 C 191.975 310.333,191.944 310.392,191.860 298.465 C 191.784 287.718,192.952 289.093,181.600 286.380 C 148.627 278.499,127.996 251.108,127.836 215.000 C 127.816 210.600,127.953 200.070,128.140 191.600 C 128.718 165.452,127.510 138.768,125.407 131.206 C 122.414 120.448,107.829 100.211,106.175 104.521 " stroke="none" fill="#f48c1c" fill-rule="evenodd"></path><path id="path2" d="M0.000 218.400 L 0.000 436.800 200.000 436.800 L 400.000 436.800 400.000 218.400 L 400.000 0.000 200.000 0.000 L 0.000 0.000 0.000 218.400 M106.492 3.881 C 141.546 16.111,132.120 66.983,95.000 65.906 C 63.703 64.998,52.418 24.796,78.585 7.427 C 86.233 2.351,97.869 0.872,106.492 3.881 M93.215 25.646 C 89.826 26.676,87.200 30.258,87.200 33.849 C 87.200 44.255,100.267 47.212,104.659 37.800 C 107.912 30.828,100.848 23.325,93.215 25.646 M217.833 87.409 C 230.705 88.730,245.369 92.373,254.431 96.502 C 255.624 97.045,257.026 97.623,257.547 97.787 C 258.600 98.117,267.482 102.563,270.600 104.321 C 287.586 113.897,305.201 130.613,315.785 147.200 C 318.787 151.906,318.903 152.095,319.941 154.000 C 326.289 165.643,331.442 179.067,333.592 189.562 C 333.998 191.543,334.439 193.339,334.571 193.554 C 336.950 197.403,337.502 224.973,337.559 342.878 L 337.600 429.155 336.631 430.278 C 334.400 432.861,318.585 430.676,316.279 427.465 C 314.059 424.375,314.223 432.417,313.970 314.200 C 313.809 238.588,313.604 204.385,313.306 203.000 C 313.070 201.900,312.401 198.750,311.821 196.000 C 310.817 191.242,308.785 183.918,307.992 182.200 C 307.788 181.760,307.249 180.410,306.793 179.200 C 299.989 161.149,286.093 143.038,269.800 130.989 C 268.299 129.879,266.620 128.758,261.800 125.647 C 256.143 121.995,244.713 117.025,235.181 114.071 C 215.694 108.031,183.570 109.028,167.000 116.186 C 166.340 116.471,164.884 117.001,163.763 117.363 C 161.899 117.966,151.934 122.877,144.928 126.645 C 143.348 127.494,141.973 128.102,141.872 127.995 C 141.772 127.888,139.509 123.480,136.845 118.200 L 132.000 108.600 133.500 107.294 C 142.250 99.678,169.396 89.866,187.400 87.813 C 200.894 86.275,206.104 86.206,217.833 87.409 M73.885 87.605 C 82.879 88.752,85.615 90.247,86.428 94.457 C 86.614 95.416,86.773 125.756,86.783 161.880 C 86.801 231.445,86.759 229.668,88.625 240.400 C 90.426 250.754,95.571 264.627,101.043 273.880 C 118.847 303.989,147.858 323.516,182.341 328.602 C 191.601 329.968,192.200 330.759,192.200 341.616 C 192.200 352.711,192.377 352.547,181.586 351.448 C 146.808 347.904,112.430 327.988,90.362 298.600 C 88.100 295.588,82.400 286.973,82.400 286.566 C 82.400 286.400,82.147 285.979,81.838 285.631 C 79.540 283.048,73.046 268.413,70.110 259.200 C 64.319 241.033,64.028 235.882,64.018 151.600 C 64.010 85.115,63.928 88.169,65.758 87.372 C 67.323 86.691,66.533 86.668,73.885 87.605 M112.447 108.424 C 119.487 116.196,124.114 124.365,126.140 132.600 C 128.017 140.227,129.153 168.673,128.562 193.200 C 127.898 220.729,128.107 224.955,130.641 235.200 C 137.355 262.344,156.837 281.065,184.167 286.634 C 192.529 288.337,192.369 288.076,192.273 299.908 C 192.177 311.727,192.287 311.639,180.388 309.375 C 148.402 303.290,120.349 279.249,111.337 250.200 C 110.996 249.100,110.380 247.210,109.968 246.000 C 109.555 244.790,108.853 241.967,108.407 239.728 C 107.961 237.488,107.509 235.418,107.403 235.128 C 106.126 231.634,105.933 223.511,105.717 164.106 L 105.499 104.412 106.449 104.056 C 107.708 103.584,108.749 104.342,112.447 108.424 M215.000 128.412 C 253.653 132.764,286.245 162.616,293.805 200.590 C 303.622 249.906,271.691 298.721,222.892 308.999 C 208.923 311.941,208.895 311.922,208.760 299.322 C 208.641 288.279,208.811 288.003,216.600 286.599 C 233.600 283.535,250.167 273.161,258.935 260.089 C 259.779 258.830,260.634 257.740,260.835 257.667 C 261.036 257.593,261.200 257.397,261.200 257.231 C 261.200 257.064,262.099 255.324,263.198 253.364 C 276.499 229.638,275.717 202.713,261.097 181.000 C 258.229 176.742,258.096 176.584,253.200 171.637 C 236.496 154.761,211.241 147.691,187.200 153.161 C 174.234 156.111,159.989 165.422,150.200 177.345 C 147.875 180.176,146.116 181.600,144.940 181.600 C 144.388 181.600,144.859 151.797,145.430 150.593 C 148.123 144.919,166.102 134.683,179.800 131.026 C 190.464 128.179,204.004 127.174,215.000 128.412 M295.200 349.400 C 295.200 385.590,295.062 415.200,294.893 415.200 C 291.994 415.200,281.907 401.944,277.848 392.800 C 276.953 390.784,276.592 389.733,274.964 384.400 C 273.150 378.459,272.404 367.747,272.402 347.567 C 272.401 339.518,272.303 332.836,272.184 332.717 C 272.065 332.599,268.240 334.388,263.684 336.694 C 259.128 339.000,254.500 341.232,253.400 341.654 C 252.300 342.077,251.040 342.593,250.600 342.802 C 244.438 345.727,227.638 350.333,219.200 351.410 C 216.450 351.762,213.805 352.145,213.321 352.263 C 209.483 353.195,208.625 351.332,208.471 341.738 L 208.342 333.676 209.369 332.049 C 210.699 329.943,212.090 329.261,216.113 328.743 C 232.053 326.693,246.467 321.930,259.200 314.503 C 270.523 307.898,281.804 298.010,290.800 286.803 C 292.960 284.112,293.536 283.600,294.400 283.600 C 295.197 283.600,295.200 283.867,295.200 349.400 " stroke="none" fill="#fbfbfb" fill-rule="evenodd"></path><path id="path3" d="M208.500 87.076 C 208.885 87.176,209.515 87.176,209.900 87.076 C 210.285 86.975,209.970 86.893,209.200 86.893 C 208.430 86.893,208.115 86.975,208.500 87.076 M197.300 109.876 C 197.685 109.976,198.315 109.976,198.700 109.876 C 199.085 109.775,198.770 109.693,198.000 109.693 C 197.230 109.693,196.915 109.775,197.300 109.876 M208.900 109.876 C 209.285 109.976,209.915 109.976,210.300 109.876 C 210.685 109.775,210.370 109.693,209.600 109.693 C 208.830 109.693,208.515 109.775,208.900 109.876 M295.200 122.925 C 295.200 122.994,295.785 123.579,296.500 124.225 L 297.800 125.400 296.625 124.100 C 295.530 122.888,295.200 122.616,295.200 122.925 M282.400 141.725 C 282.400 141.794,282.985 142.379,283.700 143.025 L 285.000 144.200 283.825 142.900 C 282.730 141.688,282.400 141.416,282.400 141.725 M144.978 168.400 C 144.978 175.330,145.033 178.165,145.099 174.700 C 145.166 171.235,145.166 165.565,145.099 162.100 C 145.033 158.635,144.978 161.470,144.978 168.400 M336.979 238.000 C 336.979 245.150,337.033 248.075,337.099 244.500 C 337.166 240.925,337.166 235.075,337.099 231.500 C 337.033 227.925,336.979 230.850,336.979 238.000 M294.995 349.200 C 294.995 385.170,295.042 399.885,295.100 381.900 C 295.158 363.915,295.158 334.485,295.100 316.500 C 295.042 298.515,294.995 313.230,294.995 349.200 M208.501 340.200 C 208.505 341.080,208.587 341.393,208.683 340.895 C 208.779 340.398,208.775 339.678,208.675 339.295 C 208.575 338.913,208.496 339.320,208.501 340.200 " stroke="none" fill="#a5a9bc" fill-rule="evenodd"></path><path id="path4" d="M203.500 87.082 C 203.995 87.178,204.805 87.178,205.300 87.082 C 205.795 86.987,205.390 86.909,204.400 86.909 C 203.410 86.909,203.005 86.987,203.500 87.082 M132.817 108.179 C 132.452 108.619,132.447 108.931,132.799 109.479 C 133.236 110.162,133.248 110.160,133.023 109.449 C 132.893 109.036,132.991 108.451,133.242 108.149 C 133.493 107.847,133.608 107.600,133.498 107.600 C 133.388 107.600,133.082 107.861,132.817 108.179 M201.516 109.497 C 202.899 109.575,205.059 109.574,206.316 109.495 C 207.572 109.416,206.440 109.352,203.800 109.353 C 201.160 109.353,200.132 109.418,201.516 109.497 M193.500 109.882 C 193.995 109.978,194.805 109.978,195.300 109.882 C 195.795 109.787,195.390 109.709,194.400 109.709 C 193.410 109.709,193.005 109.787,193.500 109.882 M212.300 109.882 C 212.795 109.978,213.605 109.978,214.100 109.882 C 214.595 109.787,214.190 109.709,213.200 109.709 C 212.210 109.709,211.805 109.787,212.300 109.882 M216.500 110.276 C 216.885 110.376,217.515 110.376,217.900 110.276 C 218.285 110.175,217.970 110.093,217.200 110.093 C 216.430 110.093,216.115 110.175,216.500 110.276 M292.400 120.525 C 292.400 120.594,292.985 121.179,293.700 121.825 L 295.000 123.000 293.825 121.700 C 292.730 120.488,292.400 120.216,292.400 120.525 M201.317 128.297 C 202.811 128.374,205.151 128.374,206.517 128.296 C 207.882 128.218,206.660 128.155,203.800 128.155 C 200.940 128.156,199.822 128.220,201.317 128.297 M194.705 128.683 C 195.202 128.779,195.922 128.775,196.305 128.675 C 196.687 128.575,196.280 128.496,195.400 128.501 C 194.520 128.505,194.207 128.587,194.705 128.683 M211.505 128.683 C 212.002 128.779,212.722 128.775,213.105 128.675 C 213.487 128.575,213.080 128.496,212.200 128.501 C 211.320 128.505,211.007 128.587,211.505 128.683 M200.900 151.094 C 201.945 151.176,203.655 151.176,204.700 151.094 C 205.745 151.012,204.890 150.944,202.800 150.944 C 200.710 150.944,199.855 151.012,200.900 151.094 M268.600 154.800 C 269.683 155.900,270.660 156.800,270.770 156.800 C 270.880 156.800,270.083 155.900,269.000 154.800 C 267.917 153.700,266.940 152.800,266.830 152.800 C 266.720 152.800,267.517 153.700,268.600 154.800 M154.788 171.500 L 152.200 174.200 154.900 171.612 C 156.385 170.188,157.600 168.973,157.600 168.912 C 157.600 168.617,157.193 168.992,154.788 171.500 M313.693 204.800 C 313.693 205.570,313.775 205.885,313.876 205.500 C 313.976 205.115,313.976 204.485,313.876 204.100 C 313.775 203.715,313.693 204.030,313.693 204.800 M335.714 205.800 C 335.717 206.900,335.795 207.303,335.887 206.695 C 335.979 206.086,335.977 205.186,335.882 204.695 C 335.787 204.203,335.711 204.700,335.714 205.800 M294.893 211.600 C 294.893 212.370,294.975 212.685,295.076 212.300 C 295.176 211.915,295.176 211.285,295.076 210.900 C 294.975 210.515,294.893 210.830,294.893 211.600 M314.597 316.800 C 314.597 374.110,314.643 397.555,314.700 368.900 C 314.757 340.245,314.757 293.355,314.700 264.700 C 314.643 236.045,314.597 259.490,314.597 316.800 M272.942 218.200 C 272.941 220.180,273.008 221.040,273.092 220.112 C 273.176 219.184,273.177 217.564,273.095 216.512 C 273.012 215.460,272.943 216.220,272.942 218.200 M336.501 216.200 C 336.505 217.080,336.587 217.393,336.683 216.895 C 336.779 216.398,336.775 215.678,336.675 215.295 C 336.575 214.913,336.496 215.320,336.501 216.200 M295.324 218.600 C 295.326 219.920,295.401 220.412,295.490 219.693 C 295.579 218.974,295.577 217.894,295.486 217.293 C 295.395 216.692,295.322 217.280,295.324 218.600 M294.893 225.600 C 294.893 226.370,294.975 226.685,295.076 226.300 C 295.176 225.915,295.176 225.285,295.076 224.900 C 294.975 224.515,294.893 224.830,294.893 225.600 M293.000 237.600 C 292.848 238.291,292.807 238.941,292.909 239.042 C 293.011 239.144,293.209 238.653,293.350 237.950 C 293.491 237.247,293.531 236.598,293.441 236.508 C 293.350 236.417,293.152 236.909,293.000 237.600 M254.175 266.500 L 253.000 267.800 254.300 266.625 C 255.015 265.979,255.600 265.394,255.600 265.325 C 255.600 265.016,255.270 265.288,254.175 266.500 M336.996 348.400 C 336.996 391.850,337.043 409.625,337.100 387.900 C 337.157 366.175,337.157 330.625,337.100 308.900 C 337.043 287.175,336.996 304.950,336.996 348.400 M268.000 283.800 C 267.028 284.790,266.323 285.600,266.433 285.600 C 266.543 285.600,267.428 284.790,268.400 283.800 C 269.372 282.810,270.077 282.000,269.967 282.000 C 269.857 282.000,268.972 282.810,268.000 283.800 M284.185 294.900 L 282.200 297.000 284.300 295.015 C 285.455 293.923,286.400 292.978,286.400 292.915 C 286.400 292.617,286.029 292.949,284.185 294.900 M279.385 299.700 L 277.400 301.800 279.500 299.815 C 281.451 297.971,281.783 297.600,281.485 297.600 C 281.422 297.600,280.477 298.545,279.385 299.700 M272.934 366.800 C 272.934 368.450,273.005 369.125,273.091 368.300 C 273.178 367.475,273.178 366.125,273.091 365.300 C 273.005 364.475,272.934 365.150,272.934 366.800 M331.907 431.090 C 332.626 431.179,333.706 431.177,334.307 431.086 C 334.908 430.995,334.320 430.922,333.000 430.924 C 331.680 430.926,331.188 431.001,331.907 431.090 " stroke="none" fill="#7f87a4" fill-rule="evenodd"></path><path id="path5" d="M91.700 2.676 C 92.085 2.776,92.715 2.776,93.100 2.676 C 93.485 2.575,93.170 2.493,92.400 2.493 C 91.630 2.493,91.315 2.575,91.700 2.676 M99.300 2.676 C 99.685 2.776,100.315 2.776,100.700 2.676 C 101.085 2.575,100.770 2.493,100.000 2.493 C 99.230 2.493,98.915 2.575,99.300 2.676 M86.460 3.649 C 85.063 4.092,83.988 4.521,84.071 4.604 C 84.153 4.687,85.656 4.327,87.410 3.804 C 89.165 3.282,90.240 2.852,89.800 2.850 C 89.360 2.847,87.857 3.207,86.460 3.649 M104.990 3.804 C 106.744 4.327,108.246 4.687,108.328 4.605 C 108.539 4.395,103.255 2.794,102.458 2.827 C 102.096 2.842,103.235 3.282,104.990 3.804 M108.833 4.951 C 109.242 5.321,112.400 6.795,112.400 6.616 C 112.400 6.389,109.381 4.800,108.949 4.800 C 108.794 4.800,108.742 4.868,108.833 4.951 M80.200 6.398 C 79.100 7.047,77.660 8.052,77.000 8.633 L 75.800 9.689 77.200 8.705 C 77.970 8.164,79.590 7.156,80.800 6.465 C 82.010 5.773,82.820 5.210,82.600 5.213 C 82.380 5.215,81.300 5.749,80.200 6.398 M113.000 7.067 C 113.220 7.289,114.487 8.291,115.817 9.294 C 118.748 11.507,120.753 13.681,122.842 16.913 C 124.724 19.826,125.155 20.300,124.193 18.400 C 122.442 14.944,117.416 9.590,113.938 7.476 C 113.202 7.029,112.780 6.845,113.000 7.067 M73.354 11.700 C 71.173 13.968,69.197 16.464,68.444 17.900 C 67.592 19.525,68.258 18.843,69.812 16.500 C 70.651 15.235,72.324 13.165,73.530 11.900 C 74.735 10.635,75.643 9.600,75.547 9.600 C 75.451 9.600,74.464 10.545,73.354 11.700 M67.080 20.263 C 66.762 20.888,66.385 21.850,66.242 22.400 C 66.099 22.950,66.435 22.514,66.989 21.431 C 67.542 20.348,67.919 19.386,67.827 19.294 C 67.735 19.201,67.399 19.637,67.080 20.263 M125.174 20.900 C 126.029 23.069,126.770 24.565,126.784 24.151 C 126.803 23.619,125.240 20.000,124.991 20.000 C 124.897 20.000,124.979 20.405,125.174 20.900 M64.739 26.460 C 63.732 29.869,64.322 44.612,65.421 43.513 C 65.513 43.420,65.324 42.097,65.001 40.572 C 64.250 37.026,64.250 31.374,65.001 27.828 C 65.669 24.677,65.510 23.848,64.739 26.460 M94.833 24.946 C 94.925 25.026,95.990 25.194,97.200 25.319 C 98.620 25.466,99.046 25.429,98.400 25.213 C 97.409 24.883,94.513 24.665,94.833 24.946 M101.455 26.900 C 102.839 27.825,103.717 28.827,104.500 30.372 C 105.105 31.566,105.600 32.322,105.600 32.052 C 105.600 30.532,103.039 27.167,101.120 26.164 C 99.267 25.196,99.425 25.544,101.455 26.900 M89.754 27.294 C 88.400 28.483,86.911 31.044,87.330 31.464 C 87.428 31.561,87.709 31.064,87.955 30.358 C 88.201 29.653,89.151 28.383,90.067 27.538 C 92.084 25.676,91.826 25.475,89.754 27.294 M127.493 27.400 C 127.888 28.958,127.888 39.842,127.493 41.400 C 127.222 42.470,127.244 42.514,127.695 41.800 C 128.403 40.678,128.403 28.122,127.695 27.000 C 127.244 26.286,127.222 26.330,127.493 27.400 M86.914 34.200 C 86.917 35.300,86.995 35.703,87.087 35.095 C 87.179 34.486,87.177 33.586,87.082 33.095 C 86.987 32.603,86.911 33.100,86.914 34.200 M104.843 37.433 C 104.546 38.252,103.567 39.749,102.666 40.761 L 101.028 42.600 102.549 41.200 C 104.099 39.773,105.754 37.062,105.514 36.342 C 105.441 36.123,105.139 36.614,104.843 37.433 M87.241 36.713 C 87.157 37.769,88.355 39.846,89.828 41.200 L 91.352 42.600 89.738 40.714 C 88.850 39.677,87.934 38.237,87.703 37.514 C 87.471 36.791,87.263 36.431,87.241 36.713 M93.400 43.398 C 94.060 43.709,95.320 43.964,96.200 43.964 C 97.080 43.964,98.340 43.709,99.000 43.398 L 100.200 42.833 99.000 43.116 C 98.340 43.272,97.080 43.400,96.200 43.400 C 95.320 43.400,94.060 43.272,93.400 43.116 L 92.200 42.833 93.400 43.398 M126.314 45.010 C 126.189 45.445,125.795 46.475,125.438 47.300 C 125.081 48.125,124.873 48.800,124.976 48.800 C 125.300 48.800,126.825 45.075,126.679 44.638 C 126.603 44.409,126.438 44.576,126.314 45.010 M66.201 46.000 C 66.567 47.218,67.555 49.200,67.796 49.200 C 68.000 49.200,66.459 45.518,66.125 45.208 C 66.002 45.094,66.036 45.450,66.201 46.000 M122.893 51.700 C 121.392 54.020,117.395 58.169,114.594 60.315 C 113.937 60.818,113.712 61.083,114.093 60.903 C 116.399 59.814,122.018 54.048,123.933 50.805 C 125.412 48.301,124.692 48.920,122.893 51.700 M69.077 51.627 C 69.475 52.302,70.149 53.157,70.574 53.527 C 71.000 53.897,70.745 53.345,70.007 52.300 C 68.485 50.146,67.997 49.793,69.077 51.627 M73.200 56.600 C 74.395 57.810,75.463 58.800,75.573 58.800 C 75.683 58.800,74.795 57.810,73.600 56.600 C 72.405 55.390,71.337 54.400,71.227 54.400 C 71.117 54.400,72.005 55.390,73.200 56.600 M76.473 59.426 C 77.121 60.171,79.600 61.808,79.600 61.490 C 79.600 61.405,78.745 60.732,77.700 59.993 C 76.655 59.255,76.103 59.000,76.473 59.426 M110.800 62.400 C 109.590 63.039,108.741 63.571,108.913 63.581 C 109.338 63.607,113.200 61.636,113.200 61.393 C 113.200 61.126,113.255 61.103,110.800 62.400 M80.000 61.797 C 80.000 62.068,83.249 63.684,83.430 63.503 C 83.514 63.419,82.776 62.959,81.791 62.481 C 80.806 62.002,80.000 61.694,80.000 61.797 M84.000 63.784 C 84.000 64.047,89.155 65.604,89.942 65.579 C 90.304 65.567,89.160 65.124,87.400 64.594 C 83.683 63.475,84.000 63.551,84.000 63.784 M104.400 64.834 C 102.213 65.470,102.074 65.558,103.524 65.386 C 104.472 65.275,105.822 64.931,106.524 64.624 C 108.277 63.856,107.494 63.934,104.400 64.834 M91.300 65.876 C 91.685 65.976,92.315 65.976,92.700 65.876 C 93.085 65.775,92.770 65.693,92.000 65.693 C 91.230 65.693,90.915 65.775,91.300 65.876 M99.700 65.876 C 100.085 65.976,100.715 65.976,101.100 65.876 C 101.485 65.775,101.170 65.693,100.400 65.693 C 99.630 65.693,99.315 65.775,99.700 65.876 M64.411 88.571 C 63.311 91.466,64.059 229.386,65.207 235.200 C 65.539 236.884,65.550 236.846,65.374 234.600 C 64.382 221.927,63.877 91.428,64.811 88.971 C 65.037 88.376,65.132 87.799,65.022 87.689 C 64.912 87.579,64.637 87.976,64.411 88.571 M73.700 87.876 C 74.085 87.976,74.715 87.976,75.100 87.876 C 75.485 87.775,75.170 87.693,74.400 87.693 C 73.630 87.693,73.315 87.775,73.700 87.876 M79.000 88.760 C 80.760 89.176,82.254 89.465,82.320 89.404 C 82.591 89.153,79.798 88.405,77.867 88.212 C 76.142 88.039,76.329 88.129,79.000 88.760 M84.514 91.131 C 85.112 91.863,85.706 92.943,85.835 93.531 C 86.211 95.241,86.335 95.462,86.368 94.480 C 86.409 93.300,85.536 91.617,84.355 90.599 C 83.586 89.936,83.613 90.027,84.514 91.131 M105.785 104.500 C 105.680 104.775,105.641 127.230,105.697 154.400 L 105.800 203.800 106.000 153.900 C 106.110 126.455,106.149 104.000,106.087 104.000 C 106.026 104.000,105.889 104.225,105.785 104.500 M110.078 106.400 C 111.219 107.500,112.246 108.400,112.361 108.400 C 112.476 108.400,111.683 107.500,110.600 106.400 C 109.517 105.300,108.489 104.400,108.316 104.400 C 108.144 104.400,108.936 105.300,110.078 106.400 M112.800 109.027 C 112.800 109.179,113.389 109.955,114.109 110.752 C 114.828 111.548,116.299 113.460,117.378 115.000 C 119.633 118.220,120.317 119.026,119.584 117.600 C 118.560 115.605,112.800 108.327,112.800 109.027 M120.786 120.300 C 121.242 121.235,121.686 122.000,121.771 122.000 C 122.123 122.000,121.501 120.530,120.756 119.600 C 119.981 118.633,119.982 118.656,120.786 120.300 M123.239 125.300 C 124.115 127.523,124.702 128.458,124.202 126.835 C 123.725 125.287,122.806 123.200,122.600 123.200 C 122.497 123.200,122.784 124.145,123.239 125.300 M125.073 130.100 C 125.212 130.815,125.570 132.030,125.869 132.800 C 126.484 134.387,126.353 133.316,125.562 130.300 C 125.080 128.459,124.725 128.314,125.073 130.100 M127.309 142.400 C 127.309 143.390,127.387 143.795,127.482 143.300 C 127.578 142.805,127.578 141.995,127.482 141.500 C 127.387 141.005,127.309 141.410,127.309 142.400 M127.935 156.800 C 128.226 170.622,128.250 189.310,128.005 210.000 C 127.870 221.441,127.944 223.839,128.513 226.400 C 128.943 228.336,129.115 228.762,128.997 227.600 C 127.963 217.375,127.910 215.498,128.353 204.432 C 128.928 190.036,128.875 173.887,128.198 157.200 L 127.670 144.200 127.935 156.800 M86.583 210.200 C 86.583 219.220,86.635 222.967,86.699 218.527 C 86.764 214.087,86.764 206.707,86.700 202.127 C 86.635 197.547,86.583 201.180,86.583 210.200 M106.124 223.000 C 106.126 224.320,106.201 224.812,106.290 224.093 C 106.379 223.374,106.377 222.294,106.286 221.693 C 106.195 221.092,106.122 221.680,106.124 223.000 M106.447 226.316 C 106.368 227.851,107.229 234.814,107.611 235.735 C 107.876 236.372,107.916 236.178,107.764 235.000 C 106.861 227.992,106.488 225.530,106.447 226.316 M86.893 230.000 C 86.893 230.770,86.975 231.085,87.076 230.700 C 87.176 230.315,87.176 229.685,87.076 229.300 C 86.975 228.915,86.893 229.230,86.893 230.000 M129.600 232.154 C 129.600 232.895,130.897 238.036,131.046 237.887 C 131.228 237.706,130.051 232.318,129.768 232.035 C 129.676 231.942,129.600 231.996,129.600 232.154 M87.458 235.000 C 87.718 238.257,88.594 243.127,88.991 243.524 C 89.142 243.675,89.166 243.349,89.045 242.799 C 88.923 242.250,88.537 239.910,88.187 237.600 C 87.364 232.185,87.182 231.535,87.458 235.000 M109.074 242.600 C 109.200 243.480,109.543 244.740,109.836 245.400 L 110.367 246.600 110.122 245.400 C 109.987 244.740,109.644 243.480,109.360 242.600 L 108.843 241.000 109.074 242.600 M132.000 241.318 C 132.000 241.830,133.684 246.050,133.830 245.904 C 133.913 245.820,133.609 244.773,133.155 243.576 C 132.363 241.489,132.000 240.779,132.000 241.318 M66.625 244.800 C 66.860 247.137,67.610 250.523,67.841 250.293 C 67.916 250.217,67.624 248.455,67.190 246.377 C 66.643 243.754,66.470 243.272,66.625 244.800 M89.766 247.000 C 90.406 249.760,90.862 251.271,91.010 251.123 C 91.200 250.933,90.018 246.283,89.707 246.000 C 89.586 245.890,89.613 246.340,89.766 247.000 M134.012 246.467 C 133.991 246.929,135.561 250.400,135.791 250.400 C 135.912 250.400,135.748 249.772,135.427 249.004 C 134.743 247.367,134.029 246.087,134.012 246.467 M110.822 248.606 C 110.793 249.139,112.292 253.230,112.634 253.551 C 112.969 253.865,112.509 252.331,111.569 250.000 C 111.170 249.010,110.834 248.383,110.822 248.606 M137.400 253.600 C 137.741 254.260,138.111 254.800,138.221 254.800 C 138.331 254.800,138.141 254.260,137.800 253.600 C 137.459 252.940,137.089 252.400,136.979 252.400 C 136.869 252.400,137.059 252.940,137.400 253.600 M68.853 254.800 C 68.863 255.906,70.323 260.158,70.363 259.200 C 70.377 258.870,70.041 257.520,69.616 256.200 C 69.180 254.846,68.847 254.236,68.853 254.800 M92.272 255.400 C 92.403 256.060,92.762 257.050,93.070 257.600 L 93.629 258.600 93.365 257.600 C 93.220 257.050,92.861 256.060,92.567 255.400 L 92.033 254.200 92.272 255.400 M139.261 256.823 C 139.762 257.715,140.428 258.658,140.740 258.917 C 141.053 259.176,140.728 258.445,140.020 257.294 C 138.501 254.826,137.944 254.480,139.261 256.823 M113.823 256.872 C 114.119 257.807,115.596 260.367,115.599 259.951 C 115.599 259.814,115.232 258.869,114.781 257.851 C 113.938 255.944,113.332 255.326,113.823 256.872 M141.480 260.100 C 145.439 265.336,151.567 271.672,154.600 273.665 C 155.260 274.099,154.904 273.676,153.809 272.727 C 149.445 268.941,146.979 266.444,144.304 263.100 C 142.764 261.175,141.413 259.600,141.303 259.600 C 141.192 259.600,141.272 259.825,141.480 260.100 M117.453 264.018 C 118.502 266.007,119.624 267.852,119.946 268.118 C 120.268 268.383,120.074 267.873,119.514 266.985 C 118.955 266.097,117.933 264.252,117.243 262.885 C 116.553 261.518,115.889 260.400,115.767 260.400 C 115.645 260.400,116.404 262.028,117.453 264.018 M94.400 260.946 C 94.400 261.454,95.555 264.000,95.785 264.000 C 95.909 264.000,95.733 263.334,95.393 262.521 C 94.765 261.019,94.400 260.440,94.400 260.946 M71.219 262.456 C 71.208 262.817,71.556 263.897,71.991 264.856 C 73.013 267.107,73.031 266.393,72.018 263.800 C 71.589 262.700,71.229 262.095,71.219 262.456 M96.890 266.700 C 97.458 268.019,98.400 269.500,98.400 269.073 C 98.400 268.644,96.823 265.600,96.600 265.600 C 96.500 265.600,96.630 266.095,96.890 266.700 M73.444 268.400 C 73.578 268.950,74.026 270.120,74.439 271.000 C 74.852 271.880,75.076 272.151,74.937 271.602 C 74.798 271.053,74.350 269.883,73.941 269.002 C 73.533 268.121,73.309 267.850,73.444 268.400 M120.978 269.875 C 121.317 270.576,121.794 271.272,122.037 271.423 C 122.574 271.755,121.995 270.615,121.010 269.400 C 120.408 268.657,120.406 268.691,120.978 269.875 M99.840 272.402 C 100.439 273.503,100.993 274.340,101.071 274.263 C 101.243 274.090,99.208 270.400,98.941 270.400 C 98.836 270.400,99.240 271.301,99.840 272.402 M123.500 273.600 C 125.078 275.942,130.748 282.557,131.341 282.748 C 131.593 282.830,130.979 282.020,129.975 280.948 C 128.971 279.877,127.092 277.650,125.799 276.000 C 122.835 272.218,121.934 271.277,123.500 273.600 M76.184 275.000 C 76.546 275.880,77.022 276.780,77.242 277.000 C 77.462 277.220,77.346 276.680,76.984 275.800 C 76.622 274.920,76.146 274.020,75.926 273.800 C 75.706 273.580,75.822 274.120,76.184 275.000 M156.367 274.937 C 156.940 275.650,158.400 276.587,158.400 276.241 C 158.400 276.139,157.815 275.644,157.100 275.143 C 156.178 274.496,155.965 274.436,156.367 274.937 M101.423 275.200 C 102.284 276.741,105.259 281.200,105.426 281.200 C 105.689 281.200,102.397 275.927,101.680 275.200 C 101.153 274.667,101.125 274.667,101.423 275.200 M159.400 277.007 C 159.840 277.366,160.560 277.835,161.000 278.051 L 161.800 278.444 161.000 277.793 C 160.560 277.434,159.840 276.965,159.400 276.749 L 158.600 276.356 159.400 277.007 M78.000 278.549 C 78.000 278.981,79.589 282.000,79.816 282.000 C 79.926 282.000,79.630 281.235,79.159 280.300 C 78.232 278.461,78.000 278.111,78.000 278.549 M162.000 278.554 C 162.000 278.760,164.342 280.148,165.300 280.510 C 166.717 281.046,165.942 280.384,164.000 279.400 C 162.900 278.843,162.000 278.462,162.000 278.554 M168.400 281.967 C 169.170 282.369,170.250 282.809,170.800 282.945 C 171.350 283.080,170.900 282.754,169.800 282.220 C 167.476 281.092,166.328 280.884,168.400 281.967 M106.748 283.300 C 107.881 284.922,110.912 288.451,110.098 287.200 C 109.191 285.806,105.927 281.600,105.752 281.600 C 105.647 281.600,106.096 282.365,106.748 283.300 M80.786 283.973 C 81.227 284.838,81.761 285.652,81.971 285.782 C 82.182 285.912,81.899 285.205,81.343 284.209 C 80.101 281.987,79.682 281.809,80.786 283.973 M132.400 283.889 C 132.400 284.392,133.543 285.390,133.812 285.121 C 133.918 285.015,133.644 284.602,133.202 284.202 C 132.761 283.803,132.400 283.662,132.400 283.889 M175.000 284.543 C 175.660 284.844,176.740 285.198,177.400 285.329 L 178.600 285.567 177.356 285.005 C 176.672 284.696,175.592 284.343,174.956 284.220 L 173.800 283.996 175.000 284.543 M134.577 285.951 C 135.454 287.403,146.000 295.818,146.000 295.066 C 146.000 294.992,144.399 293.737,142.443 292.276 C 140.486 290.814,137.841 288.670,136.565 287.510 C 135.289 286.349,134.394 285.648,134.577 285.951 M183.600 286.865 C 192.496 288.883,191.786 287.885,191.860 298.465 C 191.945 310.412,192.006 310.295,185.851 309.905 C 184.042 309.791,183.132 309.834,183.800 310.003 C 186.328 310.640,190.253 310.447,191.256 309.636 C 192.193 308.877,192.201 308.804,192.273 299.908 C 192.368 288.239,192.416 288.326,185.029 286.806 C 180.098 285.791,179.056 285.834,183.600 286.865 M82.400 286.554 C 82.400 286.927,84.370 290.000,84.608 290.000 C 84.718 290.000,84.580 289.596,84.303 289.103 C 83.596 287.843,82.400 286.241,82.400 286.554 M111.255 289.039 C 112.051 290.264,114.427 292.908,114.584 292.742 C 114.657 292.664,113.816 291.610,112.714 290.400 C 111.612 289.190,110.955 288.577,111.255 289.039 M85.477 291.631 C 85.875 292.308,86.456 293.073,86.768 293.331 C 87.080 293.589,86.832 293.035,86.215 292.100 C 84.920 290.137,84.409 289.812,85.477 291.631 M117.809 296.432 C 121.476 300.146,129.600 307.233,129.600 306.718 C 129.600 306.619,127.575 304.814,125.100 302.708 C 122.625 300.602,119.368 297.600,117.862 296.039 C 116.357 294.478,115.011 293.200,114.872 293.200 C 114.733 293.200,116.055 294.654,117.809 296.432 M87.877 295.227 C 88.275 295.902,88.946 296.757,89.370 297.127 C 89.793 297.497,89.560 296.946,88.850 295.900 C 87.412 293.779,86.758 293.327,87.877 295.227 M146.400 295.349 C 146.400 295.598,148.018 296.662,151.300 298.571 C 152.345 299.179,153.200 299.590,153.200 299.485 C 153.200 299.380,152.165 298.677,150.900 297.922 C 149.635 297.168,148.105 296.227,147.500 295.830 C 146.895 295.433,146.400 295.216,146.400 295.349 M91.032 299.400 C 93.652 303.129,105.460 316.273,105.845 315.888 C 105.921 315.813,104.257 313.962,102.147 311.775 C 100.038 309.589,96.815 306.000,94.985 303.800 C 90.443 298.337,89.720 297.532,91.032 299.400 M154.400 300.197 C 154.400 300.468,157.649 302.084,157.830 301.903 C 157.914 301.819,157.176 301.359,156.191 300.881 C 155.206 300.402,154.400 300.094,154.400 300.197 M160.400 303.167 C 161.170 303.569,162.250 304.009,162.800 304.145 C 163.350 304.280,162.900 303.954,161.800 303.420 C 159.476 302.292,158.328 302.084,160.400 303.167 M165.844 305.395 C 166.528 305.704,167.608 306.065,168.244 306.198 L 169.400 306.440 168.200 305.885 C 167.540 305.580,166.460 305.218,165.800 305.082 L 164.600 304.833 165.844 305.395 M130.000 306.940 C 130.000 307.174,133.217 309.625,135.300 310.978 C 137.194 312.208,136.498 311.323,134.522 309.989 C 133.490 309.292,132.050 308.268,131.322 307.714 C 130.595 307.159,130.000 306.811,130.000 306.940 M173.220 307.779 C 174.001 308.067,175.441 308.410,176.420 308.541 C 177.766 308.722,177.518 308.589,175.400 307.999 C 172.221 307.113,171.105 307.000,173.220 307.779 M136.977 311.963 C 137.128 312.206,137.824 312.683,138.525 313.022 C 139.709 313.594,139.743 313.592,139.000 312.990 C 137.785 312.005,136.645 311.426,136.977 311.963 M140.600 314.206 C 141.495 314.941,144.827 316.703,144.200 316.110 C 143.980 315.902,142.900 315.241,141.800 314.641 C 140.700 314.041,140.160 313.845,140.600 314.206 M106.641 316.489 C 106.860 316.988,111.641 321.216,113.878 322.889 C 114.926 323.674,114.947 323.676,114.200 322.920 C 112.360 321.060,106.435 316.019,106.641 316.489 M145.600 316.997 C 145.600 317.268,148.849 318.884,149.030 318.703 C 149.114 318.619,148.376 318.159,147.391 317.681 C 146.406 317.202,145.600 316.894,145.600 316.997 M150.400 319.395 C 150.400 319.605,153.135 320.811,153.549 320.783 C 153.870 320.762,151.101 319.239,150.700 319.217 C 150.535 319.208,150.400 319.288,150.400 319.395 M156.200 321.961 C 157.080 322.374,158.250 322.822,158.800 322.956 C 159.350 323.091,159.079 322.867,158.198 322.459 C 157.317 322.050,156.147 321.602,155.598 321.463 C 155.049 321.324,155.320 321.548,156.200 321.961 M115.200 323.767 C 115.200 324.005,121.681 328.852,123.700 330.125 C 126.102 331.639,124.595 330.315,121.100 327.839 C 119.065 326.398,116.905 324.840,116.300 324.376 C 115.695 323.913,115.200 323.639,115.200 323.767 M163.400 324.586 C 164.060 324.872,165.230 325.215,166.000 325.349 C 167.151 325.548,167.044 325.456,165.400 324.827 C 163.163 323.972,161.529 323.774,163.400 324.586 M169.200 326.125 C 169.200 326.422,176.779 328.154,177.021 327.912 C 177.128 327.806,175.810 327.415,174.093 327.044 C 172.377 326.674,170.573 326.266,170.086 326.138 C 169.599 326.011,169.200 326.005,169.200 326.125 M184.800 329.340 C 186.010 329.629,187.450 329.984,188.000 330.128 C 188.644 330.298,188.529 330.176,187.676 329.785 C 186.948 329.451,185.508 329.096,184.476 328.996 L 182.600 328.814 184.800 329.340 M190.123 331.520 C 192.471 333.970,192.819 349.427,190.563 351.076 C 190.169 351.364,190.057 351.600,190.314 351.600 C 193.547 351.600,192.962 331.869,189.693 330.614 C 189.252 330.445,189.409 330.774,190.123 331.520 M125.377 331.163 C 125.528 331.406,126.224 331.883,126.925 332.222 C 128.109 332.794,128.143 332.792,127.400 332.190 C 126.185 331.205,125.045 330.626,125.377 331.163 M129.000 333.411 C 129.440 333.769,130.340 334.326,131.000 334.650 C 132.122 335.201,132.148 335.197,131.400 334.589 C 130.960 334.231,130.060 333.674,129.400 333.350 C 128.278 332.799,128.252 332.803,129.000 333.411 M132.400 335.387 C 132.400 335.497,133.300 336.043,134.400 336.600 C 135.500 337.157,136.400 337.523,136.400 337.413 C 136.400 337.303,135.500 336.757,134.400 336.200 C 133.300 335.643,132.400 335.277,132.400 335.387 M137.820 338.363 C 138.277 338.799,141.200 340.031,141.200 339.788 C 141.200 339.576,138.145 338.000,137.736 338.000 C 137.573 338.000,137.611 338.163,137.820 338.363 M143.800 341.215 C 145.120 341.845,146.380 342.354,146.600 342.346 C 146.820 342.338,145.920 341.816,144.600 341.185 C 143.280 340.555,142.020 340.046,141.800 340.054 C 141.580 340.062,142.480 340.584,143.800 341.215 M147.200 342.528 C 147.200 342.820,151.662 344.471,151.874 344.259 C 151.967 344.166,151.269 343.819,150.322 343.487 C 149.375 343.156,148.285 342.756,147.900 342.600 C 147.515 342.443,147.200 342.411,147.200 342.528 M154.097 345.199 C 154.872 345.686,158.375 346.805,159.000 346.766 C 159.407 346.741,156.221 345.545,154.400 345.039 C 153.573 344.810,153.520 344.837,154.097 345.199 M162.371 347.835 C 163.346 348.140,164.786 348.481,165.571 348.591 C 166.357 348.701,165.740 348.437,164.200 348.004 C 161.028 347.114,159.673 346.988,162.371 347.835 M172.800 350.227 C 174.010 350.523,176.260 350.857,177.800 350.970 C 180.225 351.147,180.010 351.073,176.200 350.413 C 171.114 349.533,169.632 349.452,172.800 350.227 M181.505 351.483 C 182.002 351.579,182.722 351.575,183.105 351.475 C 183.487 351.375,183.080 351.296,182.200 351.301 C 181.320 351.305,181.007 351.387,181.505 351.483 M186.307 351.890 C 187.026 351.979,188.106 351.977,188.707 351.886 C 189.308 351.795,188.720 351.722,187.400 351.724 C 186.080 351.726,185.588 351.801,186.307 351.890 " stroke="none" fill="#fcd0a6" fill-rule="evenodd"></path><path id="path6" d="M200.705 87.083 C 201.202 87.179,201.922 87.175,202.305 87.075 C 202.687 86.975,202.280 86.896,201.400 86.901 C 200.520 86.905,200.207 86.987,200.705 87.083 M336.973 260.200 C 336.973 265.480,337.030 267.585,337.099 264.877 C 337.168 262.169,337.168 257.849,337.099 255.277 C 337.029 252.705,336.972 254.920,336.973 260.200 M208.493 337.600 C 208.493 338.370,208.575 338.685,208.676 338.300 C 208.776 337.915,208.776 337.285,208.676 336.900 C 208.575 336.515,208.493 336.830,208.493 337.600 " stroke="none" fill="#8c8cac" fill-rule="evenodd"></path><path id="path7" d="M202.313 86.695 C 203.476 86.776,205.276 86.776,206.313 86.693 C 207.351 86.611,206.400 86.545,204.200 86.546 C 202.000 86.547,201.151 86.614,202.313 86.695 M277.200 136.925 C 277.200 136.994,277.785 137.579,278.500 138.225 L 279.800 139.400 278.625 138.100 C 277.530 136.888,277.200 136.616,277.200 136.925 M336.928 217.600 C 336.928 219.030,337.001 219.615,337.089 218.900 C 337.178 218.185,337.178 217.015,337.089 216.300 C 337.001 215.585,336.928 216.170,336.928 217.600 M314.189 241.400 C 314.189 255.700,314.239 261.492,314.300 254.271 C 314.361 247.050,314.361 235.350,314.300 228.271 C 314.239 221.192,314.189 227.100,314.189 241.400 M294.493 232.000 C 294.493 232.770,294.575 233.085,294.676 232.700 C 294.776 232.315,294.776 231.685,294.676 231.300 C 294.575 230.915,294.493 231.230,294.493 232.000 M337.395 319.200 C 337.395 356.930,337.442 372.365,337.500 353.500 C 337.557 334.635,337.557 303.765,337.500 284.900 C 337.442 266.035,337.395 281.470,337.395 319.200 M252.778 267.500 L 251.400 269.000 252.900 267.622 C 254.296 266.338,254.584 266.000,254.278 266.000 C 254.212 266.000,253.537 266.675,252.778 267.500 M267.791 284.500 L 264.600 287.800 267.900 284.609 C 270.965 281.646,271.382 281.200,271.091 281.200 C 271.030 281.200,269.545 282.685,267.791 284.500 M208.957 300.000 C 208.957 302.970,209.020 304.185,209.097 302.700 C 209.174 301.215,209.174 298.785,209.097 297.300 C 209.020 295.815,208.957 297.030,208.957 300.000 M280.786 297.900 L 278.600 300.200 280.900 298.014 C 283.037 295.982,283.383 295.600,283.086 295.600 C 283.024 295.600,281.989 296.635,280.786 297.900 M272.581 350.400 C 272.581 358.430,272.634 361.715,272.699 357.700 C 272.765 353.685,272.765 347.115,272.699 343.100 C 272.634 339.085,272.581 342.370,272.581 350.400 M208.531 346.200 C 208.533 347.740,208.605 348.321,208.692 347.491 C 208.779 346.661,208.777 345.401,208.689 344.691 C 208.600 343.981,208.529 344.660,208.531 346.200 M314.093 420.000 C 314.093 420.770,314.175 421.085,314.276 420.700 C 314.376 420.315,314.376 419.685,314.276 419.300 C 314.175 418.915,314.093 419.230,314.093 420.000 M337.293 425.200 C 337.293 425.970,337.375 426.285,337.476 425.900 C 337.576 425.515,337.576 424.885,337.476 424.500 C 337.375 424.115,337.293 424.430,337.293 425.200 " stroke="none" fill="#cdd2da" fill-rule="evenodd"></path><path id="path8" d="M200.300 109.889 C 201.015 109.978,202.185 109.978,202.900 109.889 C 203.615 109.801,203.030 109.728,201.600 109.728 C 200.170 109.728,199.585 109.801,200.300 109.889 M205.300 109.887 C 205.905 109.978,206.895 109.978,207.500 109.887 C 208.105 109.795,207.610 109.720,206.400 109.720 C 205.190 109.720,204.695 109.795,205.300 109.887 M144.893 154.800 C 144.893 155.570,144.975 155.885,145.076 155.500 C 145.176 155.115,145.176 154.485,145.076 154.100 C 144.975 153.715,144.893 154.030,144.893 154.800 M253.200 171.400 C 253.946 172.170,254.647 172.800,254.757 172.800 C 254.867 172.800,254.346 172.170,253.600 171.400 C 252.854 170.630,252.153 170.000,252.043 170.000 C 251.933 170.000,252.454 170.630,253.200 171.400 M314.101 214.200 C 314.105 215.080,314.187 215.393,314.283 214.895 C 314.379 214.398,314.375 213.678,314.275 213.295 C 314.175 212.913,314.096 213.320,314.101 214.200 M336.931 222.600 C 336.933 224.140,337.005 224.721,337.092 223.891 C 337.179 223.061,337.177 221.801,337.089 221.091 C 337.000 220.381,336.929 221.060,336.931 222.600 M314.196 343.000 C 314.196 384.800,314.243 401.841,314.300 380.868 C 314.357 359.896,314.357 325.696,314.300 304.868 C 314.243 284.041,314.196 301.200,314.196 343.000 M337.384 405.800 C 337.384 415.920,337.436 420.003,337.500 414.873 C 337.563 409.742,337.563 401.462,337.500 396.473 C 337.436 391.483,337.384 395.680,337.384 405.800 " stroke="none" fill="#c4c4d4" fill-rule="evenodd"></path></g></svg>